<svg xmlns="http://www.w3.org/2000/svg" viewBox="0 0 800 540" role="img" aria-label="First day at the office, prod is down">
  <rect width="800" height="540" fill="#f6efe8"/>
  <rect x="28" y="28" width="744" height="60" rx="12" fill="#161616"/>
  <text x="400" y="68" text-anchor="middle" font-family="Impact, Arial Black, sans-serif" font-size="38" fill="#ffffff">FIRST DAY AT THE OFFICE</text>
  <rect x="52" y="118" width="320" height="290" rx="20" fill="#ffffff" stroke="#d8d8d8" stroke-width="4"/>
  <rect x="88" y="154" width="248" height="176" rx="16" fill="#dcefee" stroke="#146E6E" stroke-width="6"/>
  <rect x="118" y="204" width="42" height="90" fill="#146E6E"/>
  <rect x="179" y="176" width="42" height="118" fill="#146E6E"/>
  <rect x="240" y="145" width="42" height="149" fill="#146E6E"/>
  <rect x="301" y="225" width="20" height="69" fill="#146E6E"/>
  <rect x="170" y="330" width="82" height="58" rx="10" fill="#c0392b"/>
  <text x="211" y="367" text-anchor="middle" font-family="Arial, sans-serif" font-size="22" font-weight="700" fill="#ffffff">DOWN</text>
  <g transform="translate(430 120)">
    <rect x="0" y="0" width="320" height="290" rx="20" fill="#fff" stroke="#d8d8d8" stroke-width="4"/>
    <rect x="40" y="36" width="240" height="52" rx="12" fill="#fff3f3"/>
    <text x="160" y="70" text-anchor="middle" font-family="Arial, sans-serif" font-size="24" font-weight="700" fill="#c0392b">TASK SUCCESSFULLY FAILED</text>
    <rect x="56" y="116" width="208" height="24" rx="8" fill="#f4f4f4"/>
    <rect x="56" y="156" width="208" height="24" rx="8" fill="#f4f4f4"/>
    <rect x="56" y="196" width="208" height="24" rx="8" fill="#f4f4f4"/>
    <circle cx="84" cy="248" r="22" fill="#f39c12"/>
    <polygon points="84,232 97,257 71,257" fill="#fff8e6"/>
    <circle cx="160" cy="248" r="22" fill="#c0392b"/>
    <text x="160" y="256" text-anchor="middle" font-family="Arial, sans-serif" font-size="26" font-weight="700" fill="#fff">!</text>
    <circle cx="236" cy="248" r="22" fill="#146E6E"/>
    <text x="236" y="256" text-anchor="middle" font-family="Arial, sans-serif" font-size="24" font-weight="700" fill="#fff">?</text>
  </g>
  <rect x="28" y="448" width="744" height="64" rx="12" fill="#161616"/>
  <text x="400" y="490" text-anchor="middle" font-family="Impact, Arial Black, sans-serif" font-size="34" fill="#ffffff">PROD IS DOWN ALREADY</text>
</svg>
