<svg xmlns="http://www.w3.org/2000/svg" viewBox="0 0 800 540" role="img" aria-label="Diagram showing how hard it is to know who to ask">
  <rect width="800" height="540" fill="#f5f7f8"/>
  <text x="400" y="66" text-anchor="middle" font-family="Impact, Arial Black, sans-serif" font-size="42" fill="#161616">WHO DO I ASK?</text>
  <circle cx="400" cy="265" r="82" fill="#ffffff" stroke="#146E6E" stroke-width="8"/>
  <circle cx="374" cy="248" r="9" fill="#161616"/>
  <circle cx="426" cy="248" r="9" fill="#161616"/>
  <path d="M370 300 C395 320 405 320 430 300" fill="none" stroke="#161616" stroke-width="8" stroke-linecap="round"/>
  <path d="M400 182 C360 128 294 108 208 120" fill="none" stroke="#c0392b" stroke-width="8" stroke-linecap="round"/>
  <path d="M476 204 C562 132 646 126 712 154" fill="none" stroke="#146E6E" stroke-width="8" stroke-linecap="round"/>
  <path d="M478 320 C546 378 626 406 704 388" fill="none" stroke="#f39c12" stroke-width="8" stroke-linecap="round"/>
  <path d="M326 324 C256 390 180 412 96 392" fill="none" stroke="#7f8c8d" stroke-width="8" stroke-linecap="round"/>
  <rect x="70" y="92" width="170" height="72" rx="16" fill="#fff3f3" stroke="#c0392b" stroke-width="4"/>
  <text x="155" y="126" text-anchor="middle" font-family="Arial, sans-serif" font-size="24" font-weight="700" fill="#c0392b">Infra</text>
  <text x="155" y="149" text-anchor="middle" font-family="Arial, sans-serif" font-size="14" fill="#555">nettverk / server</text>
  <rect x="560" y="122" width="180" height="72" rx="16" fill="#e8f4f4" stroke="#146E6E" stroke-width="4"/>
  <text x="650" y="156" text-anchor="middle" font-family="Arial, sans-serif" font-size="24" font-weight="700" fill="#146E6E">Identity</text>
  <text x="650" y="179" text-anchor="middle" font-family="Arial, sans-serif" font-size="14" fill="#555">Entra / SSO / PAM</text>
  <rect x="544" y="348" width="196" height="72" rx="16" fill="#fff8e6" stroke="#f39c12" stroke-width="4"/>
  <text x="642" y="382" text-anchor="middle" font-family="Arial, sans-serif" font-size="24" font-weight="700" fill="#b9770e">Customer</text>
  <text x="642" y="405" text-anchor="middle" font-family="Arial, sans-serif" font-size="14" fill="#555">eier / avklaring / info</text>
  <rect x="60" y="350" width="190" height="72" rx="16" fill="#f4f4f4" stroke="#7f8c8d" stroke-width="4"/>
  <text x="155" y="384" text-anchor="middle" font-family="Arial, sans-serif" font-size="24" font-weight="700" fill="#444">App</text>
  <text x="155" y="407" text-anchor="middle" font-family="Arial, sans-serif" font-size="14" fill="#555">kode / config / drift</text>
  <text x="400" y="488" text-anchor="middle" font-family="Arial, sans-serif" font-size="24" font-weight="700" fill="#444">Half the job is finding the right door.</text>
</svg>
